USFL
nRows=145
nColumns=2
inDegrees=yes
endheader
time	soleus_r	
2.68733	 27.529455	
2.74982	 27.501470	
2.81232	 27.083226	
2.87482	 27.013009	
2.93731	 26.947046	
2.99981	 26.837990	
3.0623	 26.873895	
3.1248	 26.870685	
3.1873	 26.902784	
3.24979	 27.092849	
3.31229	 27.067966	
3.37478	 27.146256	
3.43728	 27.133650	
3.49978	 27.105585	
3.56227	 27.503699	
3.62477	 27.461492	
3.68726	 27.372369	
3.74976	 27.575916	
3.81226	 27.454151	
3.87475	 27.505547	
3.93725	 27.490617	
3.99974	 27.368214	
4.06224	 27.452263	
4.12474	 27.218004	
4.18723	 27.041446	
4.24973	 26.942303	
4.31222	 27.080248	
4.37472	 27.147016	
4.43722	 27.126311	
4.49971	 27.396272	
4.56221	 27.465783	
4.6247	 27.469619	
4.6872	 27.253393	
4.7497	 27.313884	
4.81219	 27.262378	
4.87469	 27.471555	
4.93718	 27.671990	
4.99968	 24.086832	
5.06218	 19.732124	
5.12467	 22.912557	
5.18717	 23.203728	
5.24966	 23.293419	
5.31216	 23.557968	
5.37466	 23.854659	
5.43715	 24.205068	
5.49965	 24.468153	
5.56214	 25.116195	
5.62464	 25.348624	
5.68714	 25.300822	
5.74963	 25.709008	
5.81213	 25.857063	
5.87462	 26.070675	
5.93712	 24.547980	
5.99962	 24.835548	
6.06211	 25.081230	
6.12461	 24.841521	
6.1871	 24.884159	
6.2496	 25.002626	
6.3121	 24.855010	
6.37459	 24.849536	
6.43709	 24.827366	
6.49958	 24.779626	
6.56208	 24.575198	
6.62458	 24.597816	
6.68707	 24.686033	
6.74957	 24.759266	
6.81206	 24.758762	
6.87456	 24.626055	
6.93706	 24.772111	
6.99955	 24.946968	
7.06205	 25.456683	
7.12454	 23.014309	
7.18704	 23.414014	
7.24954	 24.561250	
7.31203	 25.677416	
7.37453	 25.924794	
7.43702	 26.355234	
7.49952	 26.391456	
7.56202	 26.471557	
7.62451	 26.414943	
7.68701	 26.392497	
7.7495	 26.543822	
7.812	 23.119086	
7.8745	 23.104338	
7.93699	 20.521733	
7.99949	 20.603557	
8.06198	 20.970647	
8.12448	 21.093771	
8.18698	 21.265835	
8.24947	 21.254638	
8.31197	 21.287070	
8.37446	 21.360855	
8.43696	 21.339291	
8.49946	 21.320299	
8.56195	 21.394366	
8.62445	 21.162090	
8.68694	 21.091910	
8.74944	 21.095678	
8.81194	 21.018270	
8.87443	 20.947717	
8.93693	 20.756776	
8.99942	 20.516508	
9.06192	 20.459801	
9.12442	 20.414893	
9.18691	 20.320867	
9.24941	 20.256440	
9.3119	 20.241668	
9.3744	 20.282660	
9.4369	 20.260306	
9.49939	 20.469523	
9.56189	 20.673230	
9.62438	 20.555165	
9.68688	 20.692722	
9.74938	 20.732102	
9.81187	 20.587404	
9.87437	 20.040122	
9.93686	 20.314288	
9.99936	 20.297239	
10.0619	 20.816690	
10.1244	 20.936467	
10.1868	 20.927793	
10.2493	 21.246188	
10.3118	 21.290988	
10.3743	 21.313138	
10.4368	 21.218612	
10.4993	 21.136540	
10.5618	 21.249692	
10.6243	 21.228308	
10.6868	 21.025046	
10.7493	 21.099981	
10.8118	 21.219773	
10.8743	 21.697214	
10.9368	 21.829839	
10.9993	 21.957111	
11.0618	 21.580867	
11.1243	 21.790733	
11.1868	 21.817911	
11.2493	 21.459508	
11.3118	 21.660287	
11.3743	 21.836845	
11.4368	 21.701263	
11.4993	 21.746070	
11.5618	 21.822160	
11.6243	 22.156005	
11.6868	 22.234388	
